<svg width="50" height="51" viewBox="0 0 50 51" fill="none" xmlns="http://www.w3.org/2000/svg">
<path d="M41.6667 42.2742V46.6908L37.9167 44.2533L27.9376 25.5033C29.3126 25.0658 30.5626 24.3575 31.6459 23.42L41.6667 42.2742ZM31.2501 15.4408C31.2501 17.0984 30.5916 18.6882 29.4195 19.8603C28.2474 21.0324 26.6577 21.6908 25.0001 21.6908H24.0834L12.0834 44.2533L8.33344 46.6908V42.2742L20.3959 19.6075C18.1043 17.045 18.3126 13.0867 20.8959 10.7742C22.0209 9.77417 23.4792 9.19084 25.0001 9.19084V5.02417C25.5526 5.02417 26.0825 5.24366 26.4732 5.63436C26.8639 6.02506 27.0834 6.55497 27.0834 7.1075V9.56584C29.5834 10.4408 31.2501 12.795 31.2501 15.4408ZM27.0834 15.4408C27.0834 14.8883 26.8639 14.3584 26.4732 13.9677C26.0825 13.577 25.5526 13.3575 25.0001 13.3575C24.4475 13.3575 23.9176 13.577 23.5269 13.9677C23.1362 14.3584 22.9167 14.8883 22.9167 15.4408C22.9167 15.9934 23.1362 16.5233 23.5269 16.914C23.9176 17.3047 24.4475 17.5242 25.0001 17.5242C25.5526 17.5242 26.0825 17.3047 26.4732 16.914C26.8639 16.5233 27.0834 15.9934 27.0834 15.4408Z" fill="#293D62"/>
</svg>
