<svg width="50" height="50" viewBox="0 0 50 50" fill="none" xmlns="http://www.w3.org/2000/svg">
<path d="M28.2625 25.0575C28.0102 25.0191 27.7553 24.9999 27.5 25H10C8.67396 25 7.40219 25.5268 6.46451 26.4645C5.52683 27.4021 5.00005 28.6739 5.00005 30V33.75C5.00005 38.885 10.22 42.5 18.75 42.5C20.58 42.5 22.26 42.3325 23.765 42.02C23.4129 41.2583 23.1317 40.4658 22.925 39.6525C21.5466 39.8931 20.1493 40.0094 18.75 40C11.4475 40 7.50005 37.2675 7.50005 33.75V30C7.50005 29.337 7.76344 28.7011 8.23228 28.2322C8.70112 27.7634 9.337 27.5 10 27.5H25.6425C26.405 26.575 27.285 25.755 28.2625 25.0575ZM36.25 22.5C37.9076 22.5 39.4974 21.8415 40.6695 20.6694C41.8416 19.4973 42.5 17.9076 42.5 16.25C42.5 14.5924 41.8416 13.0027 40.6695 11.8306C39.4974 10.6585 37.9076 10 36.25 10C34.5924 10 33.0027 10.6585 31.8306 11.8306C30.6585 13.0027 30 14.5924 30 16.25C30 17.9076 30.6585 19.4973 31.8306 20.6694C33.0027 21.8415 34.5924 22.5 36.25 22.5ZM32.5 16.25C32.5 15.2554 32.8951 14.3016 33.5984 13.5983C34.3017 12.8951 35.2555 12.5 36.25 12.5C37.2446 12.5 38.1984 12.8951 38.9017 13.5983C39.605 14.3016 40 15.2554 40 16.25C40 17.2446 39.605 18.1984 38.9017 18.9017C38.1984 19.6049 37.2446 20 36.25 20C35.2555 20 34.3017 19.6049 33.5984 18.9017C32.8951 18.1984 32.5 17.2446 32.5 16.25ZM27.5 13.75C27.5 11.4294 26.5782 9.20376 24.9372 7.56282C23.2963 5.92187 21.0707 5 18.75 5C16.4294 5 14.2038 5.92187 12.5629 7.56282C10.9219 9.20376 10 11.4294 10 13.75C10 16.0706 10.9219 18.2962 12.5629 19.9372C14.2038 21.5781 16.4294 22.5 18.75 22.5C21.0707 22.5 23.2963 21.5781 24.9372 19.9372C26.5782 18.2962 27.5 16.0706 27.5 13.75ZM12.5 13.75C12.5 12.0924 13.1585 10.5027 14.3306 9.33058C15.5027 8.15848 17.0924 7.5 18.75 7.5C20.4076 7.5 21.9974 8.15848 23.1695 9.33058C24.3416 10.5027 25 12.0924 25 13.75C25 15.4076 24.3416 16.9973 23.1695 18.1694C21.9974 19.3415 20.4076 20 18.75 20C17.0924 20 15.5027 19.3415 14.3306 18.1694C13.1585 16.9973 12.5 15.4076 12.5 13.75ZM47.5 36.25C47.5 39.2337 46.3148 42.0952 44.205 44.2049C42.0952 46.3147 39.2337 47.5 36.25 47.5C33.2664 47.5 30.4049 46.3147 28.2951 44.2049C26.1853 42.0952 25 39.2337 25 36.25C25 33.2663 26.1853 30.4048 28.2951 28.295C30.4049 26.1853 33.2664 25 36.25 25C39.2337 25 42.0952 26.1853 44.205 28.295C46.3148 30.4048 47.5 33.2663 47.5 36.25ZM42.135 31.615C42.0189 31.4986 41.881 31.4062 41.7291 31.3432C41.5773 31.2802 41.4145 31.2478 41.25 31.2478C41.0856 31.2478 40.9228 31.2802 40.771 31.3432C40.6191 31.4062 40.4812 31.4986 40.365 31.615L33.75 38.2325L32.135 36.615C31.9003 36.3803 31.582 36.2484 31.25 36.2484C30.9181 36.2484 30.5998 36.3803 30.365 36.615C30.1303 36.8497 29.9985 37.1681 29.9985 37.5C29.9985 37.8319 30.1303 38.1503 30.365 38.385L32.865 40.885C32.9812 41.0014 33.1191 41.0938 33.271 41.1568C33.4228 41.2198 33.5856 41.2522 33.75 41.2522C33.9145 41.2522 34.0773 41.2198 34.2291 41.1568C34.381 41.0938 34.5189 41.0014 34.635 40.885L42.135 33.385C42.2515 33.2689 42.3438 33.1309 42.4068 32.9791C42.4698 32.8272 42.5023 32.6644 42.5023 32.5C42.5023 32.3356 42.4698 32.1728 42.4068 32.0209C42.3438 31.8691 42.2515 31.7311 42.135 31.615Z" fill="#293D62"/>
</svg>
