<svg width="26" height="27" viewBox="0 0 26 27" fill="none" xmlns="http://www.w3.org/2000/svg">
<path d="M13 12.7742C13.8975 12.7742 14.625 12.0466 14.625 11.1492C14.625 10.2517 13.8975 9.52417 13 9.52417C12.1025 9.52417 11.375 10.2517 11.375 11.1492C11.375 12.0466 12.1025 12.7742 13 12.7742Z" fill="#293D62"/>
<path d="M13 3.02417C10.7164 3.02406 8.52503 3.92524 6.90218 5.53186C5.27934 7.13848 4.35617 9.32068 4.33334 11.6042C4.33334 17.5408 11.9708 24.1492 12.2958 24.4308C12.4921 24.5987 12.7418 24.6909 13 24.6909C13.2582 24.6909 13.5079 24.5987 13.7042 24.4308C14.0833 24.1492 21.6667 17.5408 21.6667 11.6042C21.6438 9.32068 20.7207 7.13848 19.0978 5.53186C17.475 3.92524 15.2836 3.02406 13 3.02417ZM13 14.9408C12.2501 14.9408 11.517 14.7185 10.8935 14.3018C10.2699 13.8852 9.78394 13.293 9.49696 12.6002C9.20998 11.9073 9.13489 11.145 9.28119 10.4095C9.42749 9.67394 9.78862 8.99833 10.3189 8.46806C10.8492 7.93778 11.5248 7.57666 12.2603 7.43036C12.9958 7.28406 13.7582 7.35914 14.451 7.64613C15.1438 7.93311 15.736 8.4191 16.1527 9.04263C16.5693 9.66617 16.7917 10.3992 16.7917 11.1492C16.7917 12.1548 16.3922 13.1192 15.6811 13.8303C14.97 14.5414 14.0056 14.9408 13 14.9408Z" fill="#293D62"/>
</svg>
