<svg width="26" height="27" viewBox="0 0 26 27" fill="none" xmlns="http://www.w3.org/2000/svg">
<path d="M18.7778 9.76956C18.0037 9.2823 17.3658 8.6067 16.9237 7.80593C16.4817 7.00516 16.2499 6.10536 16.25 5.19067H2.83114C2.70153 5.19267 2.57279 5.2121 2.44836 5.24845L12.8845 15.6412L18.7778 9.76956Z" fill="#293D62"/>
<path d="M21.6667 10.6075C21.178 10.6033 20.6921 10.5328 20.2223 10.3981L13.9317 16.6669C13.6611 16.936 13.295 17.087 12.9134 17.087C12.5318 17.087 12.1657 16.936 11.895 16.6669L1.44448 6.27417C1.41244 6.39192 1.39545 6.51326 1.39392 6.63528V21.0797C1.39392 21.4628 1.5461 21.8302 1.81699 22.1011C2.08787 22.372 2.45527 22.5242 2.83837 22.5242H23.0606C23.4437 22.5242 23.8111 22.372 24.082 22.1011C24.3528 21.8302 24.505 21.4628 24.505 21.0797V9.80584C23.6521 10.3322 22.669 10.6099 21.6667 10.6075ZM3.82781 21.0797H2.82392V20.0469L8.07448 14.8397L9.09281 15.8581L3.82781 21.0797ZM23.0461 21.0797H22.035L16.77 15.8581L17.7884 14.8397L23.0389 20.0469L23.0461 21.0797Z" fill="#293D62"/>
<path d="M21.6667 8.80181C23.661 8.80181 25.2778 7.18506 25.2778 5.1907C25.2778 3.19634 23.661 1.57959 21.6667 1.57959C19.6723 1.57959 18.0555 3.19634 18.0555 5.1907C18.0555 7.18506 19.6723 8.80181 21.6667 8.80181Z" fill="#293D62"/>
</svg>
