<svg width="50" height="50" viewBox="0 0 50 50" fill="none" xmlns="http://www.w3.org/2000/svg">
<path d="M21.875 35.9375C21.875 36.3519 21.7104 36.7494 21.4174 37.0424C21.1243 37.3354 20.7269 37.5 20.3125 37.5H15.625V42.1875C15.625 42.6019 15.4604 42.9994 15.1674 43.2924C14.8743 43.5854 14.4769 43.75 14.0625 43.75C13.6481 43.75 13.2507 43.5854 12.9576 43.2924C12.6646 42.9994 12.5 42.6019 12.5 42.1875V37.5H7.8125C7.3981 37.5 7.00067 37.3354 6.70765 37.0424C6.41462 36.7494 6.25 36.3519 6.25 35.9375C6.25 35.5231 6.41462 35.1257 6.70765 34.8327C7.00067 34.5397 7.3981 34.375 7.8125 34.375H12.5V29.6875C12.5 29.2731 12.6646 28.8757 12.9576 28.5827C13.2507 28.2897 13.6481 28.125 14.0625 28.125C14.4769 28.125 14.8743 28.2897 15.1674 28.5827C15.4604 28.8757 15.625 29.2731 15.625 29.6875V34.375H20.3125C20.7269 34.375 21.1243 34.5397 21.4174 34.8327C21.7104 35.1257 21.875 35.5231 21.875 35.9375ZM20.3125 12.5H7.8125C7.3981 12.5 7.00067 12.6647 6.70765 12.9577C6.41462 13.2507 6.25 13.6481 6.25 14.0625C6.25 14.4769 6.41462 14.8744 6.70765 15.1674C7.00067 15.4604 7.3981 15.625 7.8125 15.625H20.3125C20.7269 15.625 21.1243 15.4604 21.4174 15.1674C21.7104 14.8744 21.875 14.4769 21.875 14.0625C21.875 13.6481 21.7104 13.2507 21.4174 12.9577C21.1243 12.6647 20.7269 12.5 20.3125 12.5ZM29.6875 34.3879H42.1875C42.6019 34.3879 42.9993 34.2233 43.2924 33.9303C43.5854 33.6373 43.75 33.2398 43.75 32.8254C43.75 32.411 43.5854 32.0136 43.2924 31.7206C42.9993 31.4275 42.6019 31.2629 42.1875 31.2629H29.6875C29.2731 31.2629 28.8757 31.4275 28.5826 31.7206C28.2896 32.0136 28.125 32.411 28.125 32.8254C28.125 33.2398 28.2896 33.6373 28.5826 33.9303C28.8757 34.2233 29.2731 34.3879 29.6875 34.3879ZM42.1875 37.4871H29.6875C29.2731 37.4871 28.8757 37.6518 28.5826 37.9448C28.2896 38.2378 28.125 38.6352 28.125 39.0496C28.125 39.464 28.2896 39.8615 28.5826 40.1545C28.8757 40.4475 29.2731 40.6121 29.6875 40.6121H42.1875C42.6019 40.6121 42.9993 40.4475 43.2924 40.1545C43.5854 39.8615 43.75 39.464 43.75 39.0496C43.75 38.6352 43.5854 38.2378 43.2924 37.9448C42.9993 37.6518 42.6019 37.4871 42.1875 37.4871ZM30.1451 19.8549C30.2902 20 30.4625 20.1151 30.652 20.1937C30.8416 20.2722 31.0448 20.3126 31.25 20.3126C31.4552 20.3126 31.6584 20.2722 31.848 20.1937C32.0375 20.1151 32.2098 20 32.3549 19.8549L35.9375 16.2721L39.5201 19.8549C39.6652 20 39.8375 20.1151 40.027 20.1936C40.2166 20.2722 40.4198 20.3126 40.625 20.3126C40.8302 20.3126 41.0334 20.2722 41.223 20.1936C41.4125 20.1151 41.5848 20 41.7299 19.8549C41.875 19.7098 41.9901 19.5376 42.0686 19.348C42.1471 19.1584 42.1875 18.9552 42.1875 18.75C42.1875 18.5448 42.1471 18.3417 42.0686 18.1521C41.9901 17.9625 41.875 17.7903 41.7299 17.6452L38.1473 14.0625L41.7299 10.4799C41.875 10.3348 41.9901 10.1626 42.0686 9.973C42.1471 9.78342 42.1875 9.58024 42.1875 9.37504C42.1875 9.16984 42.1471 8.96666 42.0686 8.77708C41.9901 8.58751 41.875 8.41525 41.7299 8.27016C41.5848 8.12506 41.4125 8.00997 41.223 7.93144C41.0334 7.85292 40.8302 7.8125 40.625 7.8125C40.4198 7.8125 40.2166 7.85292 40.027 7.93144C39.8375 8.00997 39.6652 8.12506 39.5201 8.27016L35.9375 11.853L32.3549 8.27016C32.0618 7.97712 31.6644 7.8125 31.25 7.8125C30.8356 7.8125 30.4382 7.97712 30.1451 8.27016C29.8521 8.56319 29.6875 8.96063 29.6875 9.37504C29.6875 9.78945 29.8521 10.1869 30.1451 10.4799L33.7277 14.0625L30.1451 17.6452C30 17.7902 29.8849 17.9625 29.8064 18.1521C29.7279 18.3417 29.6874 18.5448 29.6874 18.75C29.6874 18.9552 29.7279 19.1584 29.8064 19.348C29.8849 19.5376 30 19.7098 30.1451 19.8549Z" fill="#293D62"/>
</svg>
